<svg width="465" height="130" viewBox="0 0 465 130" fill="none" xmlns="http://www.w3.org/2000/svg">
<path d="M65.0789 95.3129H51.0789L38.5789 81.8129L31.0789 72.8129L27.5789 65.8129L26.5789 57.3129L27.5789 49.3129L30.0789 41.8129L34.5789 35.3129L38.0789 32.3129L41.5789 29.8129L46.0789 27.3129L51.0789 25.8129L58.5789 25.3129L66.5789 25.8129L71.5789 27.8129L76.5789 30.8129L81.5789 35.8129L86.5789 41.8129L89.0789 49.3129L90.0789 57.3129L89.0789 65.8129L86.5789 71.8129L81.5789 78.3129L76.5789 83.3129L65.0789 95.3129Z" fill="#002853"/>
<path d="M62.0789 98.8129H54.0789L58.0789 103.813L62.0789 98.8129Z" fill="#002853"/>
<path d="M29.0789 79.3129L36.0789 86.8129H26.5789L20.0789 109.313L17.5789 116.313V120.313H98.0789V116.313L97.0789 111.813L89.0789 86.8129H79.5789L86.5789 79.3129H93.0789L94.5789 80.3129L96.0789 81.3129L97.0789 83.3129L100.079 92.8129L105.579 111.813L108.579 124.313L108.079 125.813L107.079 127.313L106.079 128.313L104.079 129.313H58.0789H12.5789L10.0789 128.813L8.57892 127.313L7.57892 125.313V122.813L8.57892 116.313L17.5789 88.8129L20.0789 81.8129L21.0789 80.3129L23.0789 79.3129H29.0789Z" fill="#002853"/>
<circle cx="58.0789" cy="57.3129" r="23.5" fill="white"/>
<circle cx="58.0789" cy="57.3129" r="17.5" fill="#0072C0"/>
<rect x="12.8114" y="18.2368" width="19.6655" height="7.57916" rx="3.78958" transform="rotate(31 12.8114 18.2368)" fill="#0072C0"/>
<rect y="58.6814" width="19.6655" height="7.57916" rx="3.78958" transform="rotate(-2 0 58.6814)" fill="#0072C0"/>
<rect x="98.2645" y="58.9951" width="19.6655" height="7.57916" rx="3.78958" transform="rotate(2 98.2645 58.9951)" fill="#0072C0"/>
<rect x="109.269" y="25.9484" width="19.6655" height="7.57916" rx="3.78958" transform="rotate(147 109.269 25.9484)" fill="#0072C0"/>
<rect x="56.3269" y="19.5906" width="19.6655" height="7.57916" rx="3.78958" transform="rotate(-85 56.3269 19.5906)" fill="#0072C0"/>
<path d="M48.0789 120.313V112.813M48.0789 112.813V97.3129L44.0789 89.8129L43.5789 89.3129H42.5789L41.5789 89.8129L39.0789 93.3129L28.5789 109.313M48.0789 112.813H56.0789M56.0789 112.813V120.313M56.0789 112.813H76.9539M81.0789 120.313V119.313M81.0789 119.313V112.813H76.9539M81.0789 119.313L90.0789 118.413M96.0789 117.813L90.0789 118.413M90.0789 118.413V120.313M90.0789 118.413L85.5789 104.813L90.0789 100.313L85.3539 104.813M69.0789 120.313L76.9539 112.813M85.3539 104.813L84.0789 101.313L76.5789 89.8129M85.3539 104.813L76.9539 112.813M76.9539 112.813H42.5789M42.5789 112.813V120.313M42.5789 112.813L28.5789 109.313M28.5789 109.313L22.5789 120.313M28.5789 109.313L21.5789 104.813" stroke="#0072C0"/>
<path d="M137.561 94V88.4629L142.072 87.5547V57.8184L137.561 56.9102V51.3438H142.072H158.068C161.408 51.3438 164.289 51.9297 166.711 53.1016C169.152 54.2539 171.027 55.875 172.336 57.9648C173.645 60.0352 174.299 62.457 174.299 65.2305C174.299 67.9844 173.645 70.3965 172.336 72.4668C171.027 74.5371 169.152 76.1484 166.711 77.3008C164.289 78.4531 161.408 79.0293 158.068 79.0293H151.447V87.5547L155.93 88.4629V94H137.561ZM151.447 71.8223H158.068C160.334 71.8223 162.043 71.207 163.195 69.9766C164.348 68.7461 164.924 67.1836 164.924 65.2891C164.924 63.3164 164.348 61.6953 163.195 60.4258C162.043 59.1562 160.334 58.5215 158.068 58.5215H151.447V71.8223ZM187.365 94.6152C184.24 94.6152 181.73 93.7656 179.836 92.0664C177.961 90.3477 177.023 88.0332 177.023 85.123C177.023 83.1504 177.551 81.4023 178.605 79.8789C179.68 78.3555 181.281 77.1641 183.41 76.3047C185.539 75.4453 188.186 75.0156 191.35 75.0156H195.129V72.9062C195.129 71.5 194.719 70.3379 193.898 69.4199C193.098 68.502 191.867 68.043 190.207 68.043C189.406 68.043 188.674 68.1406 188.01 68.3359C187.365 68.5312 186.77 68.8145 186.223 69.1855L185.549 73.2871H178.869L178.752 64.791C180.471 63.9121 182.307 63.1797 184.26 62.5938C186.213 62.0078 188.381 61.7148 190.764 61.7148C195.002 61.7148 198.352 62.6914 200.812 64.6445C203.273 66.5977 204.504 69.3809 204.504 72.9941V85.416C204.504 85.8652 204.504 86.3047 204.504 86.7344C204.523 87.1445 204.572 87.5449 204.65 87.9355L207.99 88.4629V94H196.74C196.506 93.5508 196.262 93.0234 196.008 92.418C195.754 91.8125 195.578 91.207 195.48 90.6016C194.484 91.832 193.342 92.8086 192.053 93.5312C190.764 94.2539 189.201 94.6152 187.365 94.6152ZM190.061 87.8477C191.037 87.8477 191.984 87.6328 192.902 87.2031C193.82 86.7734 194.562 86.1875 195.129 85.4453V80.6406H191.408C189.768 80.6406 188.508 81.0117 187.629 81.7539C186.77 82.4961 186.34 83.4141 186.34 84.5078C186.34 85.5625 186.672 86.3828 187.336 86.9688C188.02 87.5547 188.928 87.8477 190.061 87.8477ZM222.111 94.6445C218.986 94.6445 216.594 93.8047 214.934 92.125C213.273 90.4258 212.443 87.7402 212.443 84.0684V68.834H208.283V62.3008H212.443V54.5078H221.76V62.3008H227.297V68.834H221.76V84.0391C221.76 85.1719 222.004 85.9824 222.492 86.4707C223 86.9395 223.684 87.1738 224.543 87.1738C224.973 87.1738 225.412 87.1445 225.861 87.0859C226.311 87.0273 226.721 86.9688 227.092 86.9102L227.795 93.7949C226.916 94.0488 225.988 94.2539 225.012 94.4102C224.055 94.5664 223.088 94.6445 222.111 94.6445ZM230.461 94V88.4629L234.387 87.5547V54.7715L229.875 53.8633V48.2969H243.703V66.2852C244.68 64.8398 245.881 63.7168 247.307 62.916C248.752 62.1152 250.412 61.7148 252.287 61.7148C255.412 61.7148 257.902 62.7891 259.758 64.9375C261.613 67.0859 262.541 70.4062 262.541 74.8984V87.5547L266.467 88.4629V94H249.797V88.4629L253.166 87.5547V74.8398C253.166 72.6523 252.775 71.1289 251.994 70.2695C251.213 69.3906 250.08 68.9512 248.596 68.9512C247.561 68.9512 246.623 69.1562 245.783 69.5664C244.943 69.957 244.25 70.5527 243.703 71.3535V87.5547L247.072 88.4629V94H230.461Z" fill="#002853"/>
<path d="M268.518 94V88.4629L273.029 87.5547V57.8184L268.518 56.9102V51.3438H303.029V63.4434H295.91L295.617 58.5508H282.404V69.4199H297.111V76.5977H282.404V87.5547L286.887 88.4629V94H268.518ZM305.725 94V88.4629L309.65 87.5547V68.7754L305.168 67.8672V62.3008H319.025V87.5547L322.951 88.4629V94H305.725ZM309.357 55.9434V48.2969H319.025V55.9434H309.357ZM325.031 94V88.4629L328.957 87.5547V68.7754L324.475 67.8672V62.3008H337.746L338.127 66.7832C339.182 65.1816 340.48 63.9414 342.023 63.0625C343.566 62.1641 345.324 61.7148 347.297 61.7148C350.344 61.7148 352.746 62.7207 354.504 64.7324C356.262 66.7441 357.141 69.918 357.141 74.2539V87.5547L361.037 88.4629V94H344.367V88.4629L347.736 87.5547V74.2539C347.736 72.3398 347.346 70.9824 346.564 70.1816C345.803 69.3613 344.689 68.9512 343.225 68.9512C342.131 68.9512 341.174 69.1758 340.354 69.625C339.553 70.0547 338.879 70.6797 338.332 71.5V87.5547L341.379 88.4629V94H325.031ZM375.246 94.6152C372.746 94.6152 370.598 93.9707 368.801 92.6816C367.004 91.373 365.627 89.5371 364.67 87.1738C363.732 84.8105 363.264 82.0664 363.264 78.9414V78.3262C363.264 75.0059 363.742 72.1055 364.699 69.625C365.656 67.125 367.023 65.1816 368.801 63.7949C370.598 62.4082 372.727 61.7148 375.188 61.7148C376.906 61.7148 378.391 62.0664 379.641 62.7695C380.91 63.4531 382.014 64.4297 382.951 65.6992V54.7715L378.439 53.8633V48.2969H382.951H392.326V87.5547L396.252 88.4629V94H384.211L383.508 90.1035C382.531 91.5879 381.369 92.7109 380.021 93.4727C378.674 94.2344 377.082 94.6152 375.246 94.6152ZM378.117 87.3789C379.133 87.3789 380.051 87.1738 380.871 86.7637C381.711 86.334 382.404 85.709 382.951 84.8887V71.793C382.404 70.8945 381.73 70.2012 380.93 69.7129C380.129 69.2051 379.211 68.9512 378.176 68.9512C376.867 68.9512 375.803 69.3516 374.982 70.1523C374.162 70.9336 373.566 72.0273 373.195 73.4336C372.824 74.8203 372.639 76.4512 372.639 78.3262V78.9414C372.639 81.5781 373.049 83.6484 373.869 85.1523C374.689 86.6367 376.105 87.3789 378.117 87.3789ZM413.977 94.6152C410.91 94.6152 408.234 93.9512 405.949 92.623C403.664 91.2754 401.887 89.4395 400.617 87.1152C399.367 84.7715 398.742 82.1152 398.742 79.1465V78.0039C398.742 74.8398 399.318 72.0273 400.471 69.5664C401.623 67.1055 403.283 65.1816 405.451 63.7949C407.619 62.3887 410.217 61.6953 413.244 61.7148C416.115 61.7148 418.537 62.2715 420.51 63.3848C422.482 64.498 423.977 66.1289 424.992 68.2773C426.027 70.4062 426.545 73.0039 426.545 76.0703V81.0508H408.469L408.439 81.2266C408.557 82.4375 408.889 83.5117 409.436 84.4492C410.002 85.3672 410.773 86.0996 411.75 86.6465C412.746 87.1934 413.957 87.4668 415.383 87.4668C416.848 87.4668 418.234 87.291 419.543 86.9395C420.871 86.5879 422.209 86.041 423.557 85.2988L425.9 91.0117C424.533 92.0469 422.834 92.9062 420.803 93.5898C418.791 94.2734 416.516 94.6152 413.977 94.6152ZM408.498 75.0449H417.873V74.2832C417.873 73.0723 417.727 72.0469 417.434 71.207C417.16 70.3477 416.691 69.6934 416.027 69.2441C415.383 68.7949 414.523 68.5703 413.449 68.5703C412.355 68.5703 411.457 68.8438 410.754 69.3906C410.051 69.9375 409.514 70.6895 409.143 71.6465C408.791 72.6035 408.547 73.6875 408.41 74.8984L408.498 75.0449ZM431.203 94V88.4629L435.1 87.5547V68.7754L430.646 67.8672V62.3008H443.889L444.182 66.1973L444.24 66.959C444.982 65.1816 445.9 63.8633 446.994 63.0039C448.088 62.1445 449.436 61.7148 451.037 61.7148C451.506 61.7148 452.033 61.7539 452.619 61.832C453.225 61.9102 453.791 62.0273 454.318 62.1836L453.352 70.7969L449.045 70.5918C447.912 70.5332 447.014 70.6895 446.35 71.0605C445.686 71.4316 445.061 71.998 444.475 72.7598V87.5547L448.4 88.4629V94H431.203Z" fill="white"/>
</svg>
